13yi voin.mkv
   General
      Unique ID : 215644406346826814292723992019418402691 (0xA23B9A198BB23690B70E89213A76CF83)
      Complete name : J:REC13yi voin.mkv
      Format : Matroska
      Format version : Version 2
      File size : 4.56 GiB
      Duration : 1h 38mn
      Overall bit rate : 6 632 Kbps
      Encoded date : UTC 2012-06-28 15:22:17
      Writing application : mkvmerge v5.6.0 ('Kenya Kane') built on May 27 2012 16:44:04
      Writing library : libebml v1.2.3 + libmatroska v1.3.0
   Video #1
      ID : 1
      Format : AVC
      Format/Info : Advanced Video Codec
      Format profile : Main@L4.0
      Format settings, CABAC : Yes
      Format settings, ReFrames : 4 frames
      Muxing mode : Header stripping
      Codec ID : V_MPEG4/ISO/AVC
      Duration : 1h 38mn
      Bit rate : 6 052 Kbps
      Width : 1 920 pixels
      Height : 1 080 pixels
      Display aspect ratio : 16:9
      Frame rate : 50.000 fps
      Original frame rate : 25.000 fps
      Standard : Component
      Color space : YUV
      Chroma subsampling : 4:2:0
      Bit depth : 8 bits
      Scan type : Interlaced
      Scan order : Top Field First
      Bits/(Pixel*Frame) : 0.058
      Stream size : 4.16 GiB (91%)
      Default : Yes
      Forced : No
      Color primaries : BT.709-5, BT.1361, IEC 61966-2-4, SMPTE RP177
      Transfer characteristics : BT.709-5, BT.1361
      Matrix coefficients : BT.709-5, BT.1361, IEC 61966-2-4 709, SMPTE RP177
   Audio #2
      ID : 2
      Format : AC-3
      Format/Info : Audio Coding 3
      Mode extension : CM (complete main)
      Muxing mode : Header stripping
      Codec ID : A_AC3
      Duration : 1h 38mn
      Bit rate mode : Constant
      Bit rate : 448 Kbps
      Channel(s) : 6 channels
      Channel positions : Front: L C R, Side: L R, LFE
      Sampling rate : 48.0 KHz
      Bit depth : 16 bits
      Compression mode : Lossy
      Delay relative to video : 30ms
      Stream size : 315 MiB (7%)
      Language : Russian
      Default : Yes
      Forced : No